<mxfile host="app.diagrams.net" modified="2024-02-15T23:05:03.011Z" agent="Mozilla/5.0 (Windows NT 10.0; Win64; x64) AppleWebKit/537.36 (KHTML, like Gecko) Chrome/120.0.0.0 Safari/537.36 OPR/106.0.0.0 (Edition std-1)" version="23.1.5" etag="BcopxjCAXqiBUhm1LrI_" type="github">
  <diagram name="PÃ¡gina-1" id="URAzGSnEXsDRU0oPPEIX">
    <mxGraphModel>
      <root>
        <mxCell id="0" />
        <mxCell id="1" parent="0" />
      </root>
    </mxGraphModel>
  </diagram>
</mxfile>
